 <svg  version="1.0" xmlns="http://www.w3.org/2000/svg"  width="300.000000pt" height="169.000000pt" viewBox="0 0 300.000000 169.000000"  preserveAspectRatio="xMidYMid meet">  <g transform="translate(0.000000,169.000000) scale(0.050000,-0.050000)" fill="#18252e" stroke="none"> <path d="M3300 1790 l0 -310 127 63 128 63 110 -63 c60 -35 113 -63 117 -63 5 0 5 139 2 310 l-6 310 -239 0 -239 0 0 -310z m329 139 c73 -74 -5 -192 -105 -157 -61 21 -85 109 -43 159 32 38 108 37 148 -2z"/> <path d="M3507 1888 c-15 -37 40 -98 71 -79 12 7 22 35 22 62 0 57 -73 70 -93 17z"/> <path d="M1080 1780 c0 -334 -4 -327 138 -247 l93 52 104 -52 c151 -77 145 -86 145 235 0 338 23 312 -272 312 l-208 0 0 -300z m181 115 l2 -45 21 45 c28 57 49 57 67 0 l15 -44 16 44 c18 48 58 62 58 20 -1 -124 -86 -230 -106 -130 l-9 45 -15 -45 c-17 -53 -63 -59 -77 -10 -34 122 -36 165 -5 165 19 0 33 -18 33 -45z"/> <path d="M4400 1780 l0 -301 124 63 124 63 106 -53 c59 -28 111 -52 116 -52 6 0 10 131 10 290 l0 290 -240 0 -240 0 0 -300z m311 179 c7 -12 -7 -27 -33 -34 l-45 -12 48 -18 49 -18 -50 -28 -50 -28 45 -13 c64 -18 56 -48 -13 -48 -62 0 -105 168 -53 205 31 21 87 18 102 -6z"/> <path d="M2789 2042 c-13 -12 -11 -482 2 -482 6 0 53 22 106 49 l96 48 86 -48 c47 -27 89 -49 93 -49 4 0 8 111 8 246 l0 247 -191 -1 c-105 0 -195 -5 -200 -10z m261 -82 c7 -11 -11 -29 -39 -40 -75 -28 -69 -97 10 -113 72 -15 50 -54 -24 -44 -96 14 -118 162 -29 197 57 23 68 23 82 0z"/> <path d="M3900 1800 c0 -132 5 -240 11 -240 7 0 51 23 99 51 l87 51 102 -51 101 -52 0 241 0 240 -200 0 -200 0 0 -240z m191 105 l15 -55 21 55 c21 57 68 74 82 30 30 -97 31 -175 2 -175 -20 0 -32 19 -33 55 l-1 55 -20 -55 c-23 -63 -47 -70 -75 -20 -18 33 -20 33 -33 0 -20 -53 -49 -42 -49 20 1 138 61 198 91 90z"/> <path d="M1673 2005 c-17 -28 -9 -465 9 -465 9 0 56 19 104 42 l87 42 83 -42 c125 -64 124 -66 124 198 l0 240 -199 0 c-109 0 -203 -7 -208 -15z m267 -85 c0 -11 -15 -20 -34 -20 -29 0 -29 -4 5 -29 36 -26 37 -29 4 -42 -43 -16 -46 -49 -5 -49 17 0 30 -9 30 -20 0 -11 -27 -20 -60 -20 -59 0 -60 2 -60 100 0 98 1 100 60 100 33 0 60 -9 60 -20z"/> <path d="M2220 1780 c0 -263 -2 -260 126 -198 l87 42 83 -42 c125 -64 124 -66 124 198 l0 240 -210 0 -210 0 0 -240z m220 80 c0 -58 8 -80 30 -80 17 0 30 -9 30 -20 0 -11 -27 -20 -59 -20 -61 0 -65 17 -43 185 7 54 42 0 42 -65z"/> </g> </svg> 